# xmcd
#
# Track frame offsets:
#	150
#	15988
#	32785
#	48081
#	69045
#	85584
#	103656
#	118767
#	135251
#	149349
#	166938
#	188714
#
# Disc length: 2682 seconds
#
# Revision: 1
# Processed by: cddbd v1.5.2PL0 Copyright (c) Steve Scherf et al.
# Submitted via: audiograbber 1.83.01
#
DISCID=8b0a780c
DTITLE=Magic Slim and The Teardrops - Bad Boy
DYEAR=2012
DGENRE=Blues
TTITLE0=Bad Boy
TTITLE1=Someone Else Is Steppin' In
TTITLE2=I Got Money
TTITLE3=Sunrise Blues
TTITLE4=Girl What You Want Me To Do
TTITLE5=Hard Luck Blues
TTITLE6=Gambling Blues
TTITLE7=Champagne and Reefer
TTITLE8=How Much More Long
TTITLE9=Matchbox Blues
TTITLE10=Older Woman
TTITLE11=Country Joyride
EXTD=YEAR: 2012
EXTT0=
EXTT1=
EXTT2=
EXTT3=
EXTT4=
EXTT5=
EXTT6=
EXTT7=
EXTT8=
EXTT9=
EXTT10=
EXTT11=
PLAYORDER=
